<mxfile host="app.diagrams.net" agent="Mozilla/5.0 (Windows NT 10.0; Win64; x64) AppleWebKit/537.36 (KHTML, like Gecko) Chrome/133.0.0.0 Safari/537.36" version="25.0.3">
  <diagram name="Page-1" id="97916047-d0de-89f5-080d-49f4d83e522f">
    <mxGraphModel dx="1295" dy="1489" grid="1" gridSize="10" guides="1" tooltips="1" connect="1" arrows="1" fold="1" page="1" pageScale="1.5" pageWidth="1169" pageHeight="827" background="none" math="0" shadow="0">
      <root>
        <mxCell id="0" />
        <mxCell id="1" parent="0" />
        <mxCell id="3" value="New Payroll Web Application" style="rounded=1;fillColor=#10739E;strokeColor=none;shadow=1;gradientColor=none;fontStyle=1;fontColor=#FFFFFF;fontSize=14;" parent="1" vertex="1">
          <mxGeometry x="780" y="410" width="220" height="60" as="geometry" />
        </mxCell>
        <mxCell id="8" value="Initiation" style="rounded=1;fillColor=#10739E;strokeColor=none;shadow=1;gradientColor=none;fontStyle=1;fontColor=#FFFFFF;fontSize=14;" parent="1" vertex="1">
          <mxGeometry x="170" y="620" width="200" height="60" as="geometry" />
        </mxCell>
        <mxCell id="9" value="Project Planning (appoint&#xa;project manager &amp; team)" style="rounded=1;fillColor=#10739E;strokeColor=none;shadow=1;gradientColor=none;fontStyle=1;fontColor=#FFFFFF;fontSize=14;" parent="1" vertex="1">
          <mxGeometry x="240" y="705.5" width="200" height="60" as="geometry" />
        </mxCell>
        <mxCell id="10" value="Define the project goals" style="rounded=1;fillColor=#10739E;strokeColor=none;shadow=1;gradientColor=none;fontStyle=1;fontColor=#FFFFFF;fontSize=14;" parent="1" vertex="1">
          <mxGeometry x="240" y="795.5" width="200" height="60" as="geometry" />
        </mxCell>
        <mxCell id="11" value="Define Measurable goals" style="rounded=1;fillColor=#10739E;strokeColor=none;shadow=1;gradientColor=none;fontStyle=1;fontColor=#FFFFFF;fontSize=14;" parent="1" vertex="1">
          <mxGeometry x="240" y="885.5" width="200" height="60" as="geometry" />
        </mxCell>
        <mxCell id="13" value="Planning" style="rounded=1;fillColor=#10739E;strokeColor=none;shadow=1;gradientColor=none;fontStyle=1;fontColor=#FFFFFF;fontSize=14;" parent="1" vertex="1">
          <mxGeometry x="480" y="615.5" width="200" height="60" as="geometry" />
        </mxCell>
        <mxCell id="14" value="Communication Plan" style="rounded=1;fillColor=#10739E;strokeColor=none;shadow=1;gradientColor=none;fontStyle=1;fontColor=#FFFFFF;fontSize=14;" parent="1" vertex="1">
          <mxGeometry x="549" y="705.5" width="200" height="60" as="geometry" />
        </mxCell>
        <mxCell id="15" value="Budget plan" style="rounded=1;fillColor=#10739E;strokeColor=none;shadow=1;gradientColor=none;fontStyle=1;fontColor=#FFFFFF;fontSize=14;" parent="1" vertex="1">
          <mxGeometry x="549" y="795.5" width="200" height="60" as="geometry" />
        </mxCell>
        <mxCell id="16" value="Plan Resource Allocation" style="rounded=1;fillColor=#10739E;strokeColor=none;shadow=1;gradientColor=none;fontStyle=1;fontColor=#FFFFFF;fontSize=14;" parent="1" vertex="1">
          <mxGeometry x="549" y="885.5" width="200" height="60" as="geometry" />
        </mxCell>
        <mxCell id="18" value="Execution" style="rounded=1;fillColor=#10739E;strokeColor=none;shadow=1;gradientColor=none;fontStyle=1;fontColor=#FFFFFF;fontSize=14;" parent="1" vertex="1">
          <mxGeometry x="790" y="615.5" width="200" height="60" as="geometry" />
        </mxCell>
        <mxCell id="19" value="Begin Development" style="rounded=1;fillColor=#10739E;strokeColor=none;shadow=1;gradientColor=none;fontStyle=1;fontColor=#FFFFFF;fontSize=14;" parent="1" vertex="1">
          <mxGeometry x="842" y="705.5" width="200" height="60" as="geometry" />
        </mxCell>
        <mxCell id="20" value="Risk Management" style="rounded=1;fillColor=#10739E;strokeColor=none;shadow=1;gradientColor=none;fontStyle=1;fontColor=#FFFFFF;fontSize=14;" parent="1" vertex="1">
          <mxGeometry x="842" y="795.5" width="200" height="60" as="geometry" />
        </mxCell>
        <mxCell id="21" value="User Interface Design" style="rounded=1;fillColor=#10739E;strokeColor=none;shadow=1;gradientColor=none;fontStyle=1;fontColor=#FFFFFF;fontSize=14;" parent="1" vertex="1">
          <mxGeometry x="842" y="885.5" width="200" height="60" as="geometry" />
        </mxCell>
        <mxCell id="22" value="System Design (Security&#xa;and functionality)" style="rounded=1;fillColor=#10739E;strokeColor=none;shadow=1;gradientColor=none;fontStyle=1;fontColor=#FFFFFF;fontSize=14;" parent="1" vertex="1">
          <mxGeometry x="842" y="975.5" width="200" height="60" as="geometry" />
        </mxCell>
        <mxCell id="23" value="Monitoring/Control" style="rounded=1;fillColor=#10739E;strokeColor=none;shadow=1;gradientColor=none;fontStyle=1;fontColor=#FFFFFF;fontSize=14;" parent="1" vertex="1">
          <mxGeometry x="1092" y="615.5" width="200" height="60" as="geometry" />
        </mxCell>
        <mxCell id="24" value="Security Testing" style="rounded=1;fillColor=#10739E;strokeColor=none;shadow=1;gradientColor=none;fontStyle=1;fontColor=#FFFFFF;fontSize=14;" parent="1" vertex="1">
          <mxGeometry x="1155" y="705.5" width="200" height="60" as="geometry" />
        </mxCell>
        <mxCell id="25" value="Performance Testing" style="rounded=1;fillColor=#10739E;strokeColor=none;shadow=1;gradientColor=none;fontStyle=1;fontColor=#FFFFFF;fontSize=14;" parent="1" vertex="1">
          <mxGeometry x="1155" y="795.5" width="200" height="60" as="geometry" />
        </mxCell>
        <mxCell id="26" value="Monitoring/Bug Fixing" style="rounded=1;fillColor=#10739E;strokeColor=none;shadow=1;gradientColor=none;fontStyle=1;fontColor=#FFFFFF;fontSize=14;" parent="1" vertex="1">
          <mxGeometry x="1155" y="885.5" width="200" height="60" as="geometry" />
        </mxCell>
        <mxCell id="27" value="Conduct User Testing/&#xa;Quality Management" style="rounded=1;fillColor=#10739E;strokeColor=none;shadow=1;gradientColor=none;fontStyle=1;fontColor=#FFFFFF;fontSize=14;" parent="1" vertex="1">
          <mxGeometry x="1155" y="975.5" width="200" height="60" as="geometry" />
        </mxCell>
        <mxCell id="34" value="" style="edgeStyle=elbowEdgeStyle;elbow=vertical;strokeWidth=4;endArrow=block;endFill=1;fontStyle=1;strokeColor=#23445D;" parent="1" source="3" target="8" edge="1">
          <mxGeometry x="22" y="165.5" width="100" height="100" as="geometry">
            <mxPoint x="22" y="265.5" as="sourcePoint" />
            <mxPoint x="122" y="165.5" as="targetPoint" />
            <Array as="points">
              <mxPoint x="552" y="555.5" />
            </Array>
          </mxGeometry>
        </mxCell>
        <mxCell id="37" value="" style="edgeStyle=elbowEdgeStyle;elbow=vertical;strokeWidth=4;endArrow=block;endFill=1;fontStyle=1;strokeColor=#23445D;" parent="1" edge="1">
          <mxGeometry x="22" y="165.5" width="100" height="100" as="geometry">
            <mxPoint x="887" y="550" as="sourcePoint" />
            <mxPoint x="1199" y="615.5" as="targetPoint" />
            <Array as="points">
              <mxPoint x="979" y="555.5" />
            </Array>
          </mxGeometry>
        </mxCell>
        <mxCell id="54" value="" style="edgeStyle=elbowEdgeStyle;elbow=vertical;strokeWidth=4;endArrow=block;endFill=1;fontStyle=1;strokeColor=#23445D;entryX=0.5;entryY=0;entryDx=0;entryDy=0;" parent="1" target="13" edge="1">
          <mxGeometry x="22" y="165.5" width="100" height="100" as="geometry">
            <mxPoint x="580" y="557" as="sourcePoint" />
            <mxPoint x="580" y="612.5" as="targetPoint" />
            <Array as="points">
              <mxPoint x="570" y="589" />
              <mxPoint x="652" y="544.5" />
            </Array>
          </mxGeometry>
        </mxCell>
        <mxCell id="55" value="" style="edgeStyle=elbowEdgeStyle;elbow=vertical;strokeWidth=4;endArrow=block;endFill=1;fontStyle=1;strokeColor=#23445D;" parent="1" edge="1">
          <mxGeometry x="22" y="165.5" width="100" height="100" as="geometry">
            <mxPoint x="880" y="556" as="sourcePoint" />
            <mxPoint x="890" y="610" as="targetPoint" />
            <Array as="points">
              <mxPoint x="942" y="555.5" />
            </Array>
          </mxGeometry>
        </mxCell>
        <mxCell id="AokJ2koksrgI_nznNnHV-56" value="Closure" style="rounded=1;fillColor=#10739E;strokeColor=none;shadow=1;gradientColor=none;fontStyle=1;fontColor=#FFFFFF;fontSize=14;" vertex="1" parent="1">
          <mxGeometry x="1410" y="615.5" width="200" height="60" as="geometry" />
        </mxCell>
        <mxCell id="AokJ2koksrgI_nznNnHV-57" value="Application Deployment" style="rounded=1;fillColor=#10739E;strokeColor=none;shadow=1;gradientColor=none;fontStyle=1;fontColor=#FFFFFF;fontSize=14;" vertex="1" parent="1">
          <mxGeometry x="1469" y="705.5" width="200" height="60" as="geometry" />
        </mxCell>
        <mxCell id="AokJ2koksrgI_nznNnHV-58" value="Project Delivery" style="rounded=1;fillColor=#10739E;strokeColor=none;shadow=1;gradientColor=none;fontStyle=1;fontColor=#FFFFFF;fontSize=14;" vertex="1" parent="1">
          <mxGeometry x="1469" y="795.5" width="200" height="60" as="geometry" />
        </mxCell>
        <mxCell id="AokJ2koksrgI_nznNnHV-59" value="Rollout Maintenance&#xa;Protocol" style="rounded=1;fillColor=#10739E;strokeColor=none;shadow=1;gradientColor=none;fontStyle=1;fontColor=#FFFFFF;fontSize=14;" vertex="1" parent="1">
          <mxGeometry x="1469" y="885.5" width="200" height="60" as="geometry" />
        </mxCell>
        <mxCell id="AokJ2koksrgI_nznNnHV-60" value="Project Close-out" style="rounded=1;fillColor=#10739E;strokeColor=none;shadow=1;gradientColor=none;fontStyle=1;fontColor=#FFFFFF;fontSize=14;" vertex="1" parent="1">
          <mxGeometry x="1469" y="975.5" width="200" height="60" as="geometry" />
        </mxCell>
        <mxCell id="AokJ2koksrgI_nznNnHV-65" value="" style="edgeStyle=elbowEdgeStyle;elbow=vertical;strokeWidth=4;endArrow=block;endFill=1;fontStyle=1;strokeColor=#23445D;" edge="1" parent="1">
          <mxGeometry x="22" y="165.5" width="100" height="100" as="geometry">
            <mxPoint x="1013" y="556" as="sourcePoint" />
            <mxPoint x="1523" y="616" as="targetPoint" />
            <Array as="points">
              <mxPoint x="1303" y="555.5" />
            </Array>
          </mxGeometry>
        </mxCell>
        <mxCell id="AokJ2koksrgI_nznNnHV-67" value="Gather needed Data" style="rounded=1;fillColor=#10739E;strokeColor=none;shadow=1;gradientColor=none;fontStyle=1;fontColor=#FFFFFF;fontSize=14;" vertex="1" parent="1">
          <mxGeometry x="550" y="970.5" width="200" height="60" as="geometry" />
        </mxCell>
        <mxCell id="AokJ2koksrgI_nznNnHV-68" value="" style="endArrow=none;html=1;rounded=0;strokeWidth=4;" edge="1" parent="1">
          <mxGeometry width="50" height="50" relative="1" as="geometry">
            <mxPoint x="200" y="920" as="sourcePoint" />
            <mxPoint x="200" y="680" as="targetPoint" />
          </mxGeometry>
        </mxCell>
        <mxCell id="AokJ2koksrgI_nznNnHV-69" value="" style="endArrow=none;html=1;rounded=0;strokeWidth=4;" edge="1" parent="1">
          <mxGeometry width="50" height="50" relative="1" as="geometry">
            <mxPoint x="200" y="735" as="sourcePoint" />
            <mxPoint x="240" y="735" as="targetPoint" />
          </mxGeometry>
        </mxCell>
        <mxCell id="AokJ2koksrgI_nznNnHV-70" value="" style="endArrow=none;html=1;rounded=0;strokeWidth=4;" edge="1" parent="1">
          <mxGeometry width="50" height="50" relative="1" as="geometry">
            <mxPoint x="200" y="826" as="sourcePoint" />
            <mxPoint x="240" y="826" as="targetPoint" />
          </mxGeometry>
        </mxCell>
        <mxCell id="AokJ2koksrgI_nznNnHV-71" value="" style="endArrow=none;html=2;rounded=0;strokeWidth=4;" edge="1" parent="1">
          <mxGeometry width="50" height="50" relative="1" as="geometry">
            <mxPoint x="198" y="920" as="sourcePoint" />
            <mxPoint x="240" y="920" as="targetPoint" />
          </mxGeometry>
        </mxCell>
        <mxCell id="AokJ2koksrgI_nznNnHV-74" value="" style="endArrow=none;html=1;rounded=0;strokeWidth=4;entryX=0.14;entryY=0.958;entryDx=0;entryDy=0;entryPerimeter=0;" edge="1" parent="1" target="13">
          <mxGeometry width="50" height="50" relative="1" as="geometry">
            <mxPoint x="510" y="1010" as="sourcePoint" />
            <mxPoint x="510" y="683" as="targetPoint" />
          </mxGeometry>
        </mxCell>
        <mxCell id="AokJ2koksrgI_nznNnHV-75" value="" style="endArrow=none;html=1;rounded=0;strokeWidth=4;" edge="1" parent="1">
          <mxGeometry width="50" height="50" relative="1" as="geometry">
            <mxPoint x="510" y="738" as="sourcePoint" />
            <mxPoint x="550" y="738" as="targetPoint" />
          </mxGeometry>
        </mxCell>
        <mxCell id="AokJ2koksrgI_nznNnHV-76" value="" style="endArrow=none;html=1;rounded=0;strokeWidth=4;" edge="1" parent="1">
          <mxGeometry width="50" height="50" relative="1" as="geometry">
            <mxPoint x="510" y="829" as="sourcePoint" />
            <mxPoint x="550" y="829" as="targetPoint" />
          </mxGeometry>
        </mxCell>
        <mxCell id="AokJ2koksrgI_nznNnHV-77" value="" style="endArrow=none;html=2;rounded=0;strokeWidth=4;" edge="1" parent="1">
          <mxGeometry width="50" height="50" relative="1" as="geometry">
            <mxPoint x="508" y="923" as="sourcePoint" />
            <mxPoint x="550" y="923" as="targetPoint" />
          </mxGeometry>
        </mxCell>
        <mxCell id="AokJ2koksrgI_nznNnHV-78" value="" style="endArrow=none;html=2;rounded=0;strokeWidth=4;" edge="1" parent="1">
          <mxGeometry width="50" height="50" relative="1" as="geometry">
            <mxPoint x="509" y="1009" as="sourcePoint" />
            <mxPoint x="551" y="1009" as="targetPoint" />
          </mxGeometry>
        </mxCell>
        <mxCell id="AokJ2koksrgI_nznNnHV-79" value="" style="endArrow=none;html=1;rounded=0;strokeWidth=4;entryX=0.14;entryY=0.958;entryDx=0;entryDy=0;entryPerimeter=0;" edge="1" parent="1">
          <mxGeometry width="50" height="50" relative="1" as="geometry">
            <mxPoint x="803" y="1011" as="sourcePoint" />
            <mxPoint x="801" y="674" as="targetPoint" />
          </mxGeometry>
        </mxCell>
        <mxCell id="AokJ2koksrgI_nznNnHV-80" value="" style="endArrow=none;html=1;rounded=0;strokeWidth=4;" edge="1" parent="1">
          <mxGeometry width="50" height="50" relative="1" as="geometry">
            <mxPoint x="803" y="739" as="sourcePoint" />
            <mxPoint x="843" y="739" as="targetPoint" />
          </mxGeometry>
        </mxCell>
        <mxCell id="AokJ2koksrgI_nznNnHV-81" value="" style="endArrow=none;html=1;rounded=0;strokeWidth=4;" edge="1" parent="1">
          <mxGeometry width="50" height="50" relative="1" as="geometry">
            <mxPoint x="803" y="830" as="sourcePoint" />
            <mxPoint x="843" y="830" as="targetPoint" />
          </mxGeometry>
        </mxCell>
        <mxCell id="AokJ2koksrgI_nznNnHV-82" value="" style="endArrow=none;html=2;rounded=0;strokeWidth=4;" edge="1" parent="1">
          <mxGeometry width="50" height="50" relative="1" as="geometry">
            <mxPoint x="801" y="924" as="sourcePoint" />
            <mxPoint x="843" y="924" as="targetPoint" />
          </mxGeometry>
        </mxCell>
        <mxCell id="AokJ2koksrgI_nznNnHV-83" value="" style="endArrow=none;html=2;rounded=0;strokeWidth=4;" edge="1" parent="1">
          <mxGeometry width="50" height="50" relative="1" as="geometry">
            <mxPoint x="802" y="1010" as="sourcePoint" />
            <mxPoint x="844" y="1010" as="targetPoint" />
          </mxGeometry>
        </mxCell>
        <mxCell id="AokJ2koksrgI_nznNnHV-84" value="" style="endArrow=none;html=1;rounded=0;strokeWidth=4;entryX=0.14;entryY=0.958;entryDx=0;entryDy=0;entryPerimeter=0;" edge="1" parent="1">
          <mxGeometry width="50" height="50" relative="1" as="geometry">
            <mxPoint x="1117" y="1012.5" as="sourcePoint" />
            <mxPoint x="1115" y="675.5" as="targetPoint" />
          </mxGeometry>
        </mxCell>
        <mxCell id="AokJ2koksrgI_nznNnHV-85" value="" style="endArrow=none;html=1;rounded=0;strokeWidth=4;" edge="1" parent="1">
          <mxGeometry width="50" height="50" relative="1" as="geometry">
            <mxPoint x="1117" y="740.5" as="sourcePoint" />
            <mxPoint x="1157" y="740.5" as="targetPoint" />
          </mxGeometry>
        </mxCell>
        <mxCell id="AokJ2koksrgI_nznNnHV-86" value="" style="endArrow=none;html=1;rounded=0;strokeWidth=4;" edge="1" parent="1">
          <mxGeometry width="50" height="50" relative="1" as="geometry">
            <mxPoint x="1117" y="831.5" as="sourcePoint" />
            <mxPoint x="1157" y="831.5" as="targetPoint" />
          </mxGeometry>
        </mxCell>
        <mxCell id="AokJ2koksrgI_nznNnHV-87" value="" style="endArrow=none;html=2;rounded=0;strokeWidth=4;" edge="1" parent="1">
          <mxGeometry width="50" height="50" relative="1" as="geometry">
            <mxPoint x="1115" y="925.5" as="sourcePoint" />
            <mxPoint x="1157" y="925.5" as="targetPoint" />
          </mxGeometry>
        </mxCell>
        <mxCell id="AokJ2koksrgI_nznNnHV-88" value="" style="endArrow=none;html=2;rounded=0;strokeWidth=4;" edge="1" parent="1">
          <mxGeometry width="50" height="50" relative="1" as="geometry">
            <mxPoint x="1116" y="1011.5" as="sourcePoint" />
            <mxPoint x="1158" y="1011.5" as="targetPoint" />
          </mxGeometry>
        </mxCell>
        <mxCell id="AokJ2koksrgI_nznNnHV-89" value="" style="endArrow=none;html=1;rounded=0;strokeWidth=4;entryX=0.14;entryY=0.958;entryDx=0;entryDy=0;entryPerimeter=0;" edge="1" parent="1">
          <mxGeometry width="50" height="50" relative="1" as="geometry">
            <mxPoint x="1431" y="1010" as="sourcePoint" />
            <mxPoint x="1429" y="673" as="targetPoint" />
          </mxGeometry>
        </mxCell>
        <mxCell id="AokJ2koksrgI_nznNnHV-90" value="" style="endArrow=none;html=1;rounded=0;strokeWidth=4;" edge="1" parent="1">
          <mxGeometry width="50" height="50" relative="1" as="geometry">
            <mxPoint x="1431" y="738" as="sourcePoint" />
            <mxPoint x="1471" y="738" as="targetPoint" />
          </mxGeometry>
        </mxCell>
        <mxCell id="AokJ2koksrgI_nznNnHV-91" value="" style="endArrow=none;html=1;rounded=0;strokeWidth=4;" edge="1" parent="1">
          <mxGeometry width="50" height="50" relative="1" as="geometry">
            <mxPoint x="1431" y="829" as="sourcePoint" />
            <mxPoint x="1471" y="829" as="targetPoint" />
          </mxGeometry>
        </mxCell>
        <mxCell id="AokJ2koksrgI_nznNnHV-92" value="" style="endArrow=none;html=2;rounded=0;strokeWidth=4;" edge="1" parent="1">
          <mxGeometry width="50" height="50" relative="1" as="geometry">
            <mxPoint x="1429" y="923" as="sourcePoint" />
            <mxPoint x="1471" y="923" as="targetPoint" />
          </mxGeometry>
        </mxCell>
        <mxCell id="AokJ2koksrgI_nznNnHV-93" value="" style="endArrow=none;html=2;rounded=0;strokeWidth=4;" edge="1" parent="1">
          <mxGeometry width="50" height="50" relative="1" as="geometry">
            <mxPoint x="1430" y="1009" as="sourcePoint" />
            <mxPoint x="1472" y="1009" as="targetPoint" />
          </mxGeometry>
        </mxCell>
      </root>
    </mxGraphModel>
  </diagram>
</mxfile>
